<svg width="242" height="220" viewBox="0 0 242 220" fill="none" xmlns="http://www.w3.org/2000/svg">
<path d="M44.9985 31.5658L33.7192 47.3158L33.186 60.1537H23.4653L23.7114 47.3978L17.8462 32.181L28.3052 30.8685L29.9458 39.7279L35.1548 30.8685L44.9985 31.5658ZM67.0649 57.5697L56.8931 58.8822L55.6626 54.2474H50.9868L49.9614 58.8822L39.5024 57.8568L47.6646 30.5404L59.0669 29.9662L67.0649 57.5697ZM54.9243 47.972L53.3657 40.8353L51.8481 47.972H54.9243ZM95.3862 29.9252L93.9097 57.7338L83.1636 58.7181L77.4214 43.8295L76.519 59.0052H67.2905L68.0288 29.9252L78.2827 29.433L85.3784 44.1986L85.7065 30.2533L95.3862 29.9252ZM121.821 55.1498C121.178 55.9564 120.385 56.6605 119.442 57.2621C118.499 57.8636 117.487 58.3627 116.407 58.7592C115.327 59.1556 114.219 59.4496 113.084 59.641C111.95 59.8461 110.87 59.9486 109.844 59.9486C107.862 59.9486 106.037 59.5931 104.369 58.8822C102.701 58.1713 101.258 57.1937 100.042 55.9496C98.8384 54.6918 97.895 53.2152 97.2114 51.5199C96.5278 49.8246 96.186 47.9994 96.186 46.0443C96.186 44.5541 96.3569 43.098 96.6987 41.6761C97.0405 40.2406 97.5259 38.8939 98.1548 37.6361C98.7974 36.3646 99.5767 35.2025 100.493 34.1498C101.409 33.0834 102.448 32.1674 103.61 31.4017C104.772 30.6361 106.043 30.0414 107.424 29.6176C108.805 29.1937 110.282 28.9818 111.854 28.9818C112.442 28.9818 113.071 29.0092 113.741 29.0638C114.411 29.1049 115.074 29.1869 115.73 29.3099C116.4 29.4193 117.049 29.5765 117.678 29.7816C118.307 29.9867 118.881 30.2396 119.401 30.5404L118.827 38.3744C118.061 38.0873 117.268 37.8959 116.448 37.8002C115.641 37.6908 114.848 37.6361 114.069 37.6361C112.975 37.6361 111.95 37.807 110.993 38.1488C110.049 38.4769 109.222 38.9554 108.511 39.5844C107.814 40.2133 107.26 40.9789 106.85 41.8812C106.44 42.7836 106.235 43.8021 106.235 44.9369C106.235 45.6478 106.331 46.3383 106.522 47.0082C106.713 47.6644 107 48.2523 107.383 48.7719C107.78 49.2777 108.265 49.6879 108.839 50.0023C109.427 50.3168 110.104 50.474 110.87 50.474C111.389 50.474 111.922 50.4056 112.469 50.2689C113.03 50.1322 113.508 49.8998 113.905 49.5717L113.987 47.972L109.065 47.89L109.311 41.7377C111.348 41.6693 113.385 41.6146 115.422 41.5736C117.459 41.5189 119.51 41.4506 121.575 41.3685L121.821 55.1498ZM148.153 55.1498C147.51 55.9564 146.717 56.6605 145.774 57.2621C144.831 57.8636 143.819 58.3627 142.739 58.7592C141.659 59.1556 140.551 59.4496 139.417 59.641C138.282 59.8461 137.202 59.9486 136.176 59.9486C134.194 59.9486 132.369 59.5931 130.701 58.8822C129.033 58.1713 127.59 57.1937 126.374 55.9496C125.17 54.6918 124.227 53.2152 123.543 51.5199C122.86 49.8246 122.518 47.9994 122.518 46.0443C122.518 44.5541 122.689 43.098 123.031 41.6761C123.373 40.2406 123.858 38.8939 124.487 37.6361C125.129 36.3646 125.909 35.2025 126.825 34.1498C127.741 33.0834 128.78 32.1674 129.942 31.4017C131.104 30.6361 132.375 30.0414 133.756 29.6176C135.137 29.1937 136.614 28.9818 138.186 28.9818C138.774 28.9818 139.403 29.0092 140.073 29.0638C140.743 29.1049 141.406 29.1869 142.062 29.3099C142.732 29.4193 143.381 29.5765 144.01 29.7816C144.639 29.9867 145.213 30.2396 145.733 30.5404L145.159 38.3744C144.393 38.0873 143.6 37.8959 142.78 37.8002C141.973 37.6908 141.18 37.6361 140.401 37.6361C139.307 37.6361 138.282 37.807 137.325 38.1488C136.381 38.4769 135.554 38.9554 134.843 39.5844C134.146 40.2133 133.592 40.9789 133.182 41.8812C132.772 42.7836 132.567 43.8021 132.567 44.9369C132.567 45.6478 132.663 46.3383 132.854 47.0082C133.045 47.6644 133.333 48.2523 133.715 48.7719C134.112 49.2777 134.597 49.6879 135.171 50.0023C135.759 50.3168 136.436 50.474 137.202 50.474C137.721 50.474 138.254 50.4056 138.801 50.2689C139.362 50.1322 139.84 49.8998 140.237 49.5717L140.319 47.972L135.397 47.89L135.643 41.7377C137.68 41.6693 139.717 41.6146 141.754 41.5736C143.792 41.5189 145.842 41.4506 147.907 41.3685L148.153 55.1498ZM169.153 29.7611C169.071 31.0463 168.996 32.3177 168.927 33.5756C168.859 34.8334 168.77 36.1049 168.661 37.39L159.965 37.8412L159.76 40.4252H165.872L165.42 46.7826L159.268 46.9877L159.063 49.9818H164.149H167.758C167.676 51.4857 167.587 52.9828 167.492 54.473C167.41 55.9496 167.334 57.433 167.266 58.9232L149.588 59.3334L150.245 29.7611H169.153ZM193.906 39.5638C193.906 40.6302 193.81 41.601 193.619 42.476C193.441 43.3373 193.154 44.1302 192.757 44.8549C192.361 45.5795 191.848 46.2494 191.219 46.8646C190.59 47.4799 189.832 48.0677 188.943 48.6283L193.824 57.3236L184.595 59.1283L181.437 50.392L178.894 50.474L178.525 59.0052H169.707C169.775 55.8881 169.836 52.7845 169.891 49.6947C169.959 46.6049 170.035 43.5013 170.117 40.3842C170.144 38.8119 170.171 37.2533 170.199 35.7084C170.226 34.1635 170.281 32.6049 170.363 31.0326C171.32 30.6771 172.263 30.3832 173.193 30.1508C174.123 29.9183 175.052 29.7406 175.982 29.6176C176.925 29.4808 177.875 29.392 178.833 29.351C179.803 29.2963 180.794 29.2689 181.806 29.2689C183.365 29.2689 184.869 29.4877 186.318 29.9252C187.781 30.349 189.073 30.9916 190.194 31.8529C191.315 32.7142 192.21 33.7875 192.88 35.0726C193.564 36.3578 193.906 37.8549 193.906 39.5638ZM184.718 40.2201C184.718 39.6459 184.636 39.1195 184.472 38.641C184.322 38.1625 184.089 37.7523 183.775 37.4105C183.474 37.0551 183.091 36.7816 182.626 36.5902C182.175 36.3851 181.642 36.2826 181.027 36.2826C180.753 36.2826 180.487 36.3031 180.227 36.3441C179.967 36.3715 179.714 36.4193 179.468 36.4877L179.14 44.1166H179.632C180.22 44.1166 180.815 44.0414 181.417 43.891C182.032 43.7406 182.579 43.5082 183.057 43.1937C183.549 42.8793 183.946 42.476 184.247 41.9838C184.561 41.4916 184.718 40.9037 184.718 40.2201Z" fill="url(#paint0_radial)"/>
<circle cx="217.067" cy="44" r="4.4" fill="white"/>
<defs>
<radialGradient id="paint0_radial" cx="0" cy="0" r="1" gradientUnits="userSpaceOnUse" gradientTransform="translate(24.8545 25.8704) rotate(9.19803) scale(177.376 511.505)">
<stop stop-color="#7BF0BF"/>
<stop offset="0.386712" stop-color="white"/>
<stop offset="0.858989" stop-color="#7BF0BF"/>
<stop offset="1" stop-color="#7BF0BF" stop-opacity="0"/>
</radialGradient>
</defs>
</svg>
