<svg width="177" height="33" viewBox="0 0 242 44" fill="none" xmlns="http://www.w3.org/2000/svg">
    <path d="M37.4773 4.01773L22.0488 25.5616L21.3194 43.1221H8.02284L8.35947 25.6738L0.336623 4.85928L14.6431 3.06396L16.8872 15.1824L24.0124 3.06396L37.4773 4.01773ZM67.6612 39.5875L53.7474 41.3829L52.0643 35.0431H45.6685L44.2659 41.3829L29.9594 39.9803L41.1241 2.61513L56.7209 1.82968L67.6612 39.5875ZM51.0545 26.4592L48.9225 16.6972L46.8467 26.4592H51.0545ZM106.401 1.77357L104.381 39.812L89.6819 41.1584L81.8274 20.7928L80.5931 41.5512H67.9698L68.9796 1.77357L83.0056 1.10033L92.7115 21.2977L93.1604 2.2224L106.401 1.77357ZM142.56 36.2774C141.681 37.3808 140.596 38.3439 139.306 39.1668C138.015 39.9896 136.631 40.6722 135.154 41.2145C133.677 41.7569 132.162 42.159 130.61 42.4208C129.057 42.7013 127.58 42.8416 126.177 42.8416C123.466 42.8416 120.969 42.3553 118.688 41.3829C116.406 40.4104 114.433 39.0733 112.769 37.3714C111.123 35.6509 109.833 33.6312 108.897 31.3122C107.962 28.9933 107.495 26.4966 107.495 23.8224C107.495 21.7839 107.729 19.7922 108.196 17.8473C108.664 15.8837 109.328 14.0416 110.188 12.3211C111.067 10.5819 112.133 8.99226 113.386 7.55226C114.639 6.09357 116.06 4.84058 117.65 3.79331C119.239 2.74604 120.979 1.93253 122.867 1.35279C124.756 0.773055 126.776 0.483186 128.927 0.483186C129.731 0.483186 130.591 0.520588 131.507 0.595393C132.424 0.651497 133.331 0.763705 134.228 0.932016C135.145 1.08163 136.033 1.29669 136.893 1.57721C137.754 1.85773 138.539 2.2037 139.25 2.61513L138.464 13.331C137.417 12.9382 136.332 12.6764 135.21 12.5455C134.107 12.3959 133.022 12.3211 131.956 12.3211C130.46 12.3211 129.057 12.5549 127.748 13.0224C126.458 13.4712 125.327 14.1258 124.354 14.986C123.4 15.8463 122.643 16.8935 122.082 18.1278C121.521 19.3621 121.24 20.7554 121.24 22.3076C121.24 23.28 121.371 24.2244 121.633 25.1408C121.895 26.0385 122.288 26.8426 122.811 27.5533C123.354 28.2452 124.017 28.8063 124.803 29.2364C125.607 29.6665 126.533 29.8816 127.58 29.8816C128.291 29.8816 129.02 29.7881 129.768 29.6011C130.535 29.414 131.189 29.0961 131.732 28.6473L131.844 26.4592L125.111 26.347L125.448 17.9315C128.235 17.838 131.021 17.7632 133.808 17.7071C136.594 17.6322 139.399 17.5387 142.223 17.4265L142.56 36.2774ZM178.578 36.2774C177.699 37.3808 176.615 38.3439 175.324 39.1668C174.034 39.9896 172.65 40.6722 171.173 41.2145C169.695 41.7569 168.181 42.159 166.628 42.4208C165.076 42.7013 163.599 42.8416 162.196 42.8416C159.484 42.8416 156.988 42.3553 154.706 41.3829C152.425 40.4104 150.452 39.0733 148.787 37.3714C147.142 35.6509 145.851 33.6312 144.916 31.3122C143.981 28.9933 143.514 26.4966 143.514 23.8224C143.514 21.7839 143.747 19.7922 144.215 17.8473C144.682 15.8837 145.346 14.0416 146.207 12.3211C147.085 10.5819 148.151 8.99226 149.404 7.55226C150.657 6.09357 152.079 4.84058 153.668 3.79331C155.258 2.74604 156.997 1.93253 158.886 1.35279C160.775 0.773055 162.795 0.483186 164.945 0.483186C165.749 0.483186 166.61 0.520588 167.526 0.595393C168.442 0.651497 169.349 0.763705 170.247 0.932016C171.163 1.08163 172.052 1.29669 172.912 1.57721C173.772 1.85773 174.558 2.2037 175.268 2.61513L174.483 13.331C173.436 12.9382 172.351 12.6764 171.229 12.5455C170.125 12.3959 169.041 12.3211 167.975 12.3211C166.479 12.3211 165.076 12.5549 163.767 13.0224C162.477 13.4712 161.345 14.1258 160.373 14.986C159.419 15.8463 158.662 16.8935 158.101 18.1278C157.539 19.3621 157.259 20.7554 157.259 22.3076C157.259 23.28 157.39 24.2244 157.652 25.1408C157.914 26.0385 158.306 26.8426 158.83 27.5533C159.372 28.2452 160.036 28.8063 160.822 29.2364C161.626 29.6665 162.551 29.8816 163.599 29.8816C164.309 29.8816 165.039 29.7881 165.787 29.6011C166.554 29.414 167.208 29.0961 167.75 28.6473L167.863 26.4592L161.13 26.347L161.467 17.9315C164.253 17.838 167.04 17.7632 169.826 17.7071C172.613 17.6322 175.418 17.5387 178.242 17.4265L178.578 36.2774ZM207.304 1.54916C207.191 3.30708 207.088 5.04629 206.995 6.76681C206.901 8.48733 206.78 10.2265 206.63 11.9845L194.736 12.6016L194.456 16.1361H202.815L202.198 24.8322L193.783 25.1128L193.502 29.2083H200.459H205.396C205.284 31.2655 205.162 33.3133 205.031 35.3517C204.919 37.3714 204.816 39.4005 204.723 41.439L180.542 42L181.44 1.54916H207.304ZM241.162 14.958C241.162 16.4167 241.031 17.7445 240.769 18.9413C240.526 20.1195 240.134 21.2042 239.591 22.1954C239.049 23.1865 238.348 24.1029 237.487 24.9444C236.627 25.786 235.589 26.5902 234.374 27.3569L241.05 39.2509L228.427 41.7195L224.107 29.7694L220.628 29.8816L220.123 41.5512H208.061C208.154 37.2873 208.239 33.0421 208.313 28.8156C208.407 24.5891 208.51 20.3439 208.622 16.08C208.659 13.9294 208.697 11.7975 208.734 9.68421C208.772 7.57097 208.846 5.43902 208.959 3.28838C210.268 2.80214 211.558 2.40007 212.83 2.08214C214.101 1.76422 215.373 1.52111 216.645 1.35279C217.935 1.16578 219.235 1.04422 220.544 0.98812C221.872 0.913315 223.228 0.875912 224.612 0.875912C226.744 0.875912 228.801 1.17513 230.783 1.77357C232.784 2.35331 234.551 3.23227 236.085 4.41045C237.618 5.58863 238.843 7.05668 239.76 8.8146C240.695 10.5725 241.162 12.6203 241.162 14.958ZM228.595 15.8556C228.595 15.0702 228.483 14.3502 228.258 13.6956C228.053 13.0411 227.735 12.48 227.305 12.0125C226.893 11.5263 226.369 11.1523 225.734 10.8904C225.117 10.6099 224.387 10.4697 223.546 10.4697C223.172 10.4697 222.807 10.4977 222.452 10.5538C222.096 10.5912 221.75 10.6567 221.414 10.7502L220.965 21.1855H221.638C222.442 21.1855 223.256 21.0826 224.079 20.8769C224.92 20.6712 225.668 20.3533 226.323 19.9232C226.996 19.493 227.538 18.9413 227.95 18.2681C228.38 17.5948 228.595 16.7907 228.595 15.8556Z" fill="url(#paint0_radial)"/>
    <defs>
        <radialGradient id="paint0_radial" cx="0" cy="0" r="1" gradientUnits="userSpaceOnUse" gradientTransform="translate(9.89237 -2.72222) rotate(9.19803) scale(241.876 697.507)">
            <stop/>
            <stop offset="0.386712" stop-color="white"/>
            <stop offset="0.858989"/>
            <stop offset="1" stop-opacity="0"/>
        </radialGradient>
    </defs>
</svg>
