<svg width="177" height="33" viewBox="0 0 177 33" fill="none" xmlns="http://www.w3.org/2000/svg">
<path d="M27.9985 3.5658L16.7192 19.3158L16.186 32.1537H6.46533L6.71143 19.3978L0.846191 4.18103L11.3052 2.86853L12.9458 11.7279L18.1548 2.86853L27.9985 3.5658ZM50.0649 29.5697L39.8931 30.8822L38.6626 26.2474H33.9868L32.9614 30.8822L22.5024 29.8568L30.6646 2.54041L42.0669 1.96619L50.0649 29.5697ZM37.9243 19.972L36.3657 12.8353L34.8481 19.972H37.9243ZM78.3862 1.92517L76.9097 29.7338L66.1636 30.7181L60.4214 15.8295L59.519 31.0052H50.2905L51.0288 1.92517L61.2827 1.43298L68.3784 16.1986L68.7065 2.2533L78.3862 1.92517ZM104.821 27.1498C104.178 27.9564 103.385 28.6605 102.442 29.2621C101.499 29.8636 100.487 30.3627 99.4067 30.7592C98.3267 31.1556 97.2192 31.4496 96.0845 31.641C94.9497 31.8461 93.8696 31.9486 92.8442 31.9486C90.8618 31.9486 89.0366 31.5931 87.3687 30.8822C85.7007 30.1713 84.2583 29.1937 83.0415 27.9496C81.8384 26.6918 80.895 25.2152 80.2114 23.5199C79.5278 21.8246 79.186 19.9994 79.186 18.0443C79.186 16.5541 79.3569 15.098 79.6987 13.6761C80.0405 12.2406 80.5259 10.8939 81.1548 9.63611C81.7974 8.36462 82.5767 7.20251 83.4927 6.14978C84.4087 5.08337 85.4478 4.16736 86.6099 3.40173C87.772 2.63611 89.0435 2.04138 90.4243 1.61755C91.8052 1.19373 93.2817 0.981812 94.854 0.981812C95.4419 0.981812 96.0708 1.00916 96.7407 1.06384C97.4106 1.10486 98.0737 1.18689 98.73 1.30994C99.3999 1.41931 100.049 1.57654 100.678 1.78162C101.307 1.98669 101.881 2.23962 102.401 2.54041L101.827 10.3744C101.061 10.0873 100.268 9.89587 99.4478 9.80017C98.6411 9.6908 97.8481 9.63611 97.0688 9.63611C95.9751 9.63611 94.9497 9.80701 93.9927 10.1488C93.0493 10.4769 92.2222 10.9554 91.5112 11.5844C90.814 12.2133 90.2603 12.9789 89.8501 13.8812C89.4399 14.7836 89.2349 15.8021 89.2349 16.9369C89.2349 17.6478 89.3306 18.3383 89.522 19.0082C89.7134 19.6644 90.0005 20.2523 90.3833 20.7719C90.7798 21.2777 91.2651 21.6879 91.8394 22.0023C92.4272 22.3168 93.104 22.474 93.8696 22.474C94.3892 22.474 94.9224 22.4056 95.4692 22.2689C96.0298 22.1322 96.5083 21.8998 96.9048 21.5717L96.9868 19.972L92.0649 19.89L92.311 13.7377C94.3481 13.6693 96.3853 13.6146 98.4224 13.5736C100.459 13.5189 102.51 13.4506 104.575 13.3685L104.821 27.1498ZM131.153 27.1498C130.51 27.9564 129.717 28.6605 128.774 29.2621C127.831 29.8636 126.819 30.3627 125.739 30.7592C124.659 31.1556 123.551 31.4496 122.417 31.641C121.282 31.8461 120.202 31.9486 119.176 31.9486C117.194 31.9486 115.369 31.5931 113.701 30.8822C112.033 30.1713 110.59 29.1937 109.374 27.9496C108.17 26.6918 107.227 25.2152 106.543 23.5199C105.86 21.8246 105.518 19.9994 105.518 18.0443C105.518 16.5541 105.689 15.098 106.031 13.6761C106.373 12.2406 106.858 10.8939 107.487 9.63611C108.129 8.36462 108.909 7.20251 109.825 6.14978C110.741 5.08337 111.78 4.16736 112.942 3.40173C114.104 2.63611 115.375 2.04138 116.756 1.61755C118.137 1.19373 119.614 0.981812 121.186 0.981812C121.774 0.981812 122.403 1.00916 123.073 1.06384C123.743 1.10486 124.406 1.18689 125.062 1.30994C125.732 1.41931 126.381 1.57654 127.01 1.78162C127.639 1.98669 128.213 2.23962 128.733 2.54041L128.159 10.3744C127.393 10.0873 126.6 9.89587 125.78 9.80017C124.973 9.6908 124.18 9.63611 123.401 9.63611C122.307 9.63611 121.282 9.80701 120.325 10.1488C119.381 10.4769 118.554 10.9554 117.843 11.5844C117.146 12.2133 116.592 12.9789 116.182 13.8812C115.772 14.7836 115.567 15.8021 115.567 16.9369C115.567 17.6478 115.663 18.3383 115.854 19.0082C116.045 19.6644 116.333 20.2523 116.715 20.7719C117.112 21.2777 117.597 21.6879 118.171 22.0023C118.759 22.3168 119.436 22.474 120.202 22.474C120.721 22.474 121.254 22.4056 121.801 22.2689C122.362 22.1322 122.84 21.8998 123.237 21.5717L123.319 19.972L118.397 19.89L118.643 13.7377C120.68 13.6693 122.717 13.6146 124.754 13.5736C126.792 13.5189 128.842 13.4506 130.907 13.3685L131.153 27.1498ZM152.153 1.76111C152.071 3.04626 151.996 4.31775 151.927 5.57556C151.859 6.83337 151.77 8.10486 151.661 9.39001L142.965 9.84119L142.76 12.4252H148.872L148.42 18.7826L142.268 18.9877L142.063 21.9818H147.149H150.758C150.676 23.4857 150.587 24.9828 150.492 26.473C150.41 27.9496 150.334 29.433 150.266 30.9232L132.588 31.3334L133.245 1.76111H152.153ZM176.906 11.5638C176.906 12.6302 176.81 13.601 176.619 14.476C176.441 15.3373 176.154 16.1302 175.757 16.8549C175.361 17.5795 174.848 18.2494 174.219 18.8646C173.59 19.4799 172.832 20.0677 171.943 20.6283L176.824 29.3236L167.595 31.1283L164.437 22.392L161.894 22.474L161.525 31.0052H152.707C152.775 27.8881 152.836 24.7845 152.891 21.6947C152.959 18.6049 153.035 15.5013 153.117 12.3842C153.144 10.8119 153.171 9.2533 153.199 7.70837C153.226 6.16345 153.281 4.60486 153.363 3.03259C154.32 2.67712 155.263 2.38318 156.193 2.15076C157.123 1.91833 158.052 1.7406 158.982 1.61755C159.925 1.48083 160.875 1.39197 161.833 1.35095C162.803 1.29626 163.794 1.26892 164.806 1.26892C166.365 1.26892 167.869 1.48767 169.318 1.92517C170.781 2.349 172.073 2.99158 173.194 3.85291C174.315 4.71423 175.21 5.78748 175.88 7.07263C176.564 8.35779 176.906 9.85486 176.906 11.5638ZM167.718 12.2201C167.718 11.6459 167.636 11.1195 167.472 10.641C167.322 10.1625 167.089 9.75232 166.775 9.41052C166.474 9.05505 166.091 8.78162 165.626 8.59021C165.175 8.38513 164.642 8.28259 164.027 8.28259C163.753 8.28259 163.487 8.3031 163.227 8.34412C162.967 8.37146 162.714 8.41931 162.468 8.48767L162.14 16.1166H162.632C163.22 16.1166 163.815 16.0414 164.417 15.891C165.032 15.7406 165.579 15.5082 166.057 15.1937C166.549 14.8793 166.946 14.476 167.247 13.9838C167.561 13.4916 167.718 12.9037 167.718 12.2201Z" fill="url(#paint0_radial)"/>
<defs>
<radialGradient id="paint0_radial" cx="0" cy="0" r="1" gradientUnits="userSpaceOnUse" gradientTransform="translate(7.8545 -2.12959) rotate(9.19803) scale(177.376 511.505)">
<stop stop-color="#7BF0BF"/>
<stop offset="0.386712" stop-color="white"/>
<stop offset="0.858989" stop-color="#7BF0BF"/>
<stop offset="1" stop-color="#7BF0BF" stop-opacity="0"/>
</radialGradient>
</defs>
</svg>
